{
  "accessors": [
    {
      "bufferView": 2,
      "componentType": 5126,
      "count": 6075,
      "max": [
        308.5326232910156,
        177.54183959960938,
        430.33868408203125
      ],
      "min": [
        -308.5326232910156,
        -324.6273498535156,
        -5.465304851531982
      ],
      "type": "VEC3"
    },
    {
      "bufferView": 2,
      "byteOffset": 72900,
      "componentType": 5126,
      "count": 6075,
      "max": [
        1.0,
        1.0,
        1.0
      ],
      "min": [
        -1.0,
        -1.0,
        -1.0
      ],
      "type": "VEC3"
    },
    {
      "bufferView": 3,
      "componentType": 5126,
      "count": 6075,
      "max": [
        1.0,
        1.0,
        1.0,
        1.0
      ],
      "min": [
        -1.0,
        -1.0,
        -1.0,
        -1.0
      ],
      "type": "VEC4"
    },
    {
      "bufferView": 1,
      "componentType": 5126,
      "count": 6075,
      "max": [
        0.9914010167121887,
        0.9980679750442505
      ],
      "min": [
        0.0063229999504983425,
        0.010623999871313572
      ],
      "type": "VEC2"
    },
    {
      "bufferView": 0,
      "componentType": 5125,
      "count": 12318,
      "type": "SCALAR"
    },
    {
      "bufferView": 2,
      "byteOffset": 145800,
      "componentType": 5126,
      "count": 2961,
      "max": [
        68.84667205810547,
        33.53361892700195,
        194.61521911621094
      ],
      "min": [
        -76.94657897949219,
        -86.59628295898438,
        0.7354840040206909
      ],
      "type": "VEC3"
    },
    {
      "bufferView": 2,
      "byteOffset": 181332,
      "componentType": 5126,
      "count": 2961,
      "max": [
        1.0,
        1.0,
        1.0
      ],
      "min": [
        -1.0,
        -1.0,
        -1.0
      ],
      "type": "VEC3"
    },
    {
      "bufferView": 3,
      "byteOffset": 97200,
      "componentType": 5126,
      "count": 2961,
      "max": [
        1.0,
        1.0,
        1.0,
        1.0
      ],
      "min": [
        -1.0,
        -1.0,
        -1.0,
        -1.0
      ],
      "type": "VEC4"
    },
    {
      "bufferView": 1,
      "byteOffset": 48600,
      "componentType": 5126,
      "count": 2961,
      "max": [
        0.9546819925308228,
        0.9955459833145142
      ],
      "min": [
        0.004794000182300806,
        -0.00019700000120792538
      ],
      "type": "VEC2"
    },
    {
      "bufferView": 0,
      "byteOffset": 49272,
      "componentType": 5125,
      "count": 6918,
      "type": "SCALAR"
    },
    {
      "bufferView": 2,
      "byteOffset": 216864,
      "componentType": 5126,
      "count": 9404,
      "max": [
        209.6619415283203,
        -149.6573486328125,
        200.0
      ],
      "min": [
        -240.2493133544922,
        -324.67730712890625,
        0.0
      ],
      "type": "VEC3"
    },
    {
      "bufferView": 2,
      "byteOffset": 329712,
      "componentType": 5126,
      "count": 9404,
      "max": [
        1.0,
        1.0,
        1.0
      ],
      "min": [
        -1.0,
        -1.0,
        -1.0
      ],
      "type": "VEC3"
    },
    {
      "bufferView": 3,
      "byteOffset": 144576,
      "componentType": 5126,
      "count": 9404,
      "max": [
        1.0,
        1.0,
        1.0,
        1.0
      ],
      "min": [
        -1.0,
        -1.0,
        -1.0,
        -1.0
      ],
      "type": "VEC4"
    },
    {
      "bufferView": 1,
      "byteOffset": 72288,
      "componentType": 5126,
      "count": 9404,
      "max": [
        0.9910029768943787,
        0.9903039932250977
      ],
      "min": [
        0.005140000022947788,
        0.010312000289559364
      ],
      "type": "VEC2"
    },
    {
      "bufferView": 0,
      "byteOffset": 76944,
      "componentType": 5125,
      "count": 19431,
      "type": "SCALAR"
    },
    {
      "bufferView": 2,
      "byteOffset": 442560,
      "componentType": 5126,
      "count": 6371,
      "max": [
        209.6619415283203,
        -148.14308166503906,
        200.0
      ],
      "min": [
        -240.2493133544922,
        -324.67730712890625,
        0.0
      ],
      "type": "VEC3"
    },
    {
      "bufferView": 2,
      "byteOffset": 519012,
      "componentType": 5126,
      "count": 6371,
      "max": [
        1.0,
        1.0,
        1.0
      ],
      "min": [
        -1.0,
        -1.0,
        -1.0
      ],
      "type": "VEC3"
    },
    {
      "bufferView": 3,
      "byteOffset": 295040,
      "componentType": 5126,
      "count": 6371,
      "max": [
        1.0,
        1.0,
        1.0,
        1.0
      ],
      "min": [
        -1.0,
        -1.0,
        -1.0,
        -1.0
      ],
      "type": "VEC4"
    },
    {
      "bufferView": 1,
      "byteOffset": 147520,
      "componentType": 5126,
      "count": 6371,
      "max": [
        0.9922090172767639,
        0.9980080127716064
      ],
      "min": [
        0.005140000022947788,
        0.013345999643206596
      ],
      "type": "VEC2"
    },
    {
      "bufferView": 0,
      "byteOffset": 154668,
      "componentType": 5125,
      "count": 11463,
      "type": "SCALAR"
    },
    {
      "bufferView": 2,
      "byteOffset": 595464,
      "componentType": 5126,
      "count": 2852,
      "max": [
        128.38209533691406,
        16.52910614013672,
        -0.4985010027885437
      ],
      "min": [
        -128.50457763671875,
        -130.788818359375,
        -4.243334770202637
      ],
      "type": "VEC3"
    },
    {
      "bufferView": 2,
      "byteOffset": 629688,
      "componentType": 5126,
      "count": 2852,
      "max": [
        1.0,
        1.0,
        1.0
      ],
      "min": [
        -1.0,
        -1.0,
        -1.0
      ],
      "type": "VEC3"
    },
    {
      "bufferView": 3,
      "byteOffset": 396976,
      "componentType": 5126,
      "count": 2852,
      "max": [
        1.0,
        1.0,
        1.0,
        1.0
      ],
      "min": [
        -1.0,
        -1.0,
        -1.0,
        -1.0
      ],
      "type": "VEC4"
    },
    {
      "bufferView": 1,
      "byteOffset": 198488,
      "componentType": 5126,
      "count": 2852,
      "max": [
        0.9841660261154175,
        0.9824190139770508
      ],
      "min": [
        0.8355559706687927,
        0.7026169896125793
      ],
      "type": "VEC2"
    },
    {
      "bufferView": 0,
      "byteOffset": 200520,
      "componentType": 5125,
      "count": 5736,
      "type": "SCALAR"
    }
  ],
  "asset": {
    "extras": {
      "author": "greta.m (https://sketchfab.com/greta.m)",
      "license": "CC-BY-4.0 (http://creativecommons.org/licenses/by/4.0/)",
      "source": "https://sketchfab.com/3d-models/the-control-room-08af0360e2f84ae6af2e92a43e22ddca",
      "title": "The Control Room"
    },
    "generator": "Sketchfab-12.66.0",
    "version": "2.0"
  },
  "bufferViews": [
    {
      "buffer": 0,
      "byteLength": 223464,
      "name": "floatBufferViews",
      "target": 34963
    },
    {
      "buffer": 0,
      "byteLength": 221304,
      "byteOffset": 223464,
      "byteStride": 8,
      "name": "floatBufferViews",
      "target": 34962
    },
    {
      "buffer": 0,
      "byteLength": 663912,
      "byteOffset": 444768,
      "byteStride": 12,
      "name": "floatBufferViews",
      "target": 34962
    },
    {
      "buffer": 0,
      "byteLength": 442608,
      "byteOffset": 1108680,
      "byteStride": 16,
      "name": "floatBufferViews",
      "target": 34962
    }
  ],
  "buffers": [
    {
      "byteLength": 1551288,
      "uri": "scene.bin"
    }
  ],
  "images": [
    {
      "uri": "textures/initialShadingGroup_baseColor.png"
    },
    {
      "uri": "textures/initialShadingGroup_metallicRoughness.png"
    },
    {
      "uri": "textures/initialShadingGroup_normal.png"
    },
    {
      "uri": "textures/lambert2SG_baseColor.png"
    },
    {
      "uri": "textures/lambert2SG_metallicRoughness.png"
    },
    {
      "uri": "textures/lambert2SG_normal.png"
    },
    {
      "uri": "textures/lambert3SG_normal.png"
    },
    {
      "uri": "textures/pasted__lambert2SG_baseColor.png"
    },
    {
      "uri": "textures/pasted__lambert2SG_metallicRoughness.png"
    },
    {
      "uri": "textures/pasted__lambert2SG_emissive.png"
    },
    {
      "uri": "textures/pasted__lambert2SG_normal.png"
    }
  ],
  "materials": [
    {
      "alphaMode": "BLEND",
      "doubleSided": true,
      "name": "initialShadingGroup",
      "normalTexture": {
        "index": 2
      },
      "pbrMetallicRoughness": {
        "baseColorFactor": [
          0.7921325599,
          0.7921325599,
          0.7921325599,
          1.0
        ],
        "baseColorTexture": {
          "index": 0
        },
        "metallicRoughnessTexture": {
          "index": 1
        },
        "roughnessFactor": 0.7495713478
      }
    },
    {
      "doubleSided": true,
      "name": "lambert2SG",
      "normalTexture": {
        "index": 5
      },
      "pbrMetallicRoughness": {
        "baseColorTexture": {
          "index": 3
        },
        "metallicRoughnessTexture": {
          "index": 4
        }
      }
    },
    {
      "doubleSided": true,
      "name": "lambert3SG",
      "normalTexture": {
        "index": 6,
        "scale": 0.11723333880548918
      },
      "pbrMetallicRoughness": {
        "baseColorFactor": [
          0.03207000325196082,
          0.036965017779002025,
          0.046559472231579496,
          1.0
        ],
        "metallicFactor": 0.8164532525886338,
        "roughnessFactor": 0.6462084040153464
      }
    },
    {
      "doubleSided": true,
      "emissiveFactor": [
        1.0,
        1.0,
        1.0
      ],
      "emissiveTexture": {
        "index": 9
      },
      "name": "pasted__lambert2SG",
      "normalTexture": {
        "index": 10
      },
      "pbrMetallicRoughness": {
        "baseColorTexture": {
          "index": 7
        },
        "metallicRoughnessTexture": {
          "index": 8
        }
      }
    }
  ],
  "meshes": [
    {
      "name": "Object_0",
      "primitives": [
        {
          "attributes": {
            "NORMAL": 1,
            "POSITION": 0,
            "TANGENT": 2,
            "TEXCOORD_0": 3
          },
          "indices": 4,
          "material": 0,
          "mode": 4
        }
      ]
    },
    {
      "name": "Object_1",
      "primitives": [
        {
          "attributes": {
            "NORMAL": 6,
            "POSITION": 5,
            "TANGENT": 7,
            "TEXCOORD_0": 8
          },
          "indices": 9,
          "material": 1,
          "mode": 4
        }
      ]
    },
    {
      "name": "Object_2",
      "primitives": [
        {
          "attributes": {
            "NORMAL": 11,
            "POSITION": 10,
            "TANGENT": 12,
            "TEXCOORD_0": 13
          },
          "indices": 14,
          "material": 3,
          "mode": 4
        }
      ]
    },
    {
      "name": "Object_3",
      "primitives": [
        {
          "attributes": {
            "NORMAL": 16,
            "POSITION": 15,
            "TANGENT": 17,
            "TEXCOORD_0": 18
          },
          "indices": 19,
          "material": 3,
          "mode": 4
        }
      ]
    },
    {
      "name": "Object_4",
      "primitives": [
        {
          "attributes": {
            "NORMAL": 21,
            "POSITION": 20,
            "TANGENT": 22,
            "TEXCOORD_0": 23
          },
          "indices": 24,
          "material": 2,
          "mode": 4
        }
      ]
    }
  ],
  "nodes": [
    {
      "children": [
        1
      ],
      "matrix": [
        1.0,
        0.0,
        0.0,
        0.0,
        0.0,
        2.220446049250313e-16,
        -1.0,
        0.0,
        0.0,
        1.0,
        2.220446049250313e-16,
        0.0,
        0.0,
        0.0,
        0.0,
        1.0
      ],
      "name": "Sketchfab_model"
    },
    {
      "children": [
        2,
        3,
        4,
        5,
        6
      ],
      "name": "ControlRoom.obj.cleaner.materialmerger.gles"
    },
    {
      "mesh": 0,
      "name": "Object_2"
    },
    {
      "mesh": 1,
      "name": "Object_3"
    },
    {
      "mesh": 2,
      "name": "Object_4"
    },
    {
      "mesh": 3,
      "name": "Object_5"
    },
    {
      "mesh": 4,
      "name": "Object_6"
    }
  ],
  "samplers": [
    {
      "magFilter": 9729,
      "minFilter": 9987,
      "wrapS": 10497,
      "wrapT": 10497
    }
  ],
  "scene": 0,
  "scenes": [
    {
      "name": "Sketchfab_Scene",
      "nodes": [
        0
      ]
    }
  ],
  "textures": [
    {
      "sampler": 0,
      "source": 0
    },
    {
      "sampler": 0,
      "source": 1
    },
    {
      "sampler": 0,
      "source": 2
    },
    {
      "sampler": 0,
      "source": 3
    },
    {
      "sampler": 0,
      "source": 4
    },
    {
      "sampler": 0,
      "source": 5
    },
    {
      "sampler": 0,
      "source": 6
    },
    {
      "sampler": 0,
      "source": 7
    },
    {
      "sampler": 0,
      "source": 8
    },
    {
      "sampler": 0,
      "source": 9
    },
    {
      "sampler": 0,
      "source": 10
    }
  ]
}
